<svg width="27" height="27" viewBox="0 0 27 27" fill="none" xmlns="http://www.w3.org/2000/svg">
<ellipse cx="13.5036" cy="13.6715" rx="13.2247" ry="13.2417" fill="#F5F8F9"/>
<path fill-rule="evenodd" clip-rule="evenodd" d="M17.3561 13.4116C17.3554 11.1595 15.5204 9.30839 13.2876 9.30766C10.998 9.30688 9.15867 11.1333 9.15854 13.4077C9.1584 15.6762 10.9927 17.5171 13.2556 17.5197C15.5147 17.5222 17.3567 15.6768 17.3561 13.4116ZM13.8408 21.5283C13.8408 21.8154 13.8428 22.0895 13.8402 22.3635C13.8374 22.6546 13.6632 22.8842 13.4025 22.9481C13.0229 23.0411 12.6819 22.773 12.6747 22.3717C12.6704 22.1351 12.6738 21.8984 12.6738 21.6617C12.6738 21.6209 12.6738 21.58 12.6738 21.5283C12.4134 21.5283 12.1664 21.5285 11.9195 21.5283C11.5665 21.5282 11.3096 21.2933 11.3006 20.9627C11.2914 20.6267 11.5424 20.3711 11.8989 20.3616C12.116 20.3558 12.3334 20.3603 12.5507 20.3601C12.5879 20.3601 12.6251 20.3601 12.6738 20.3601C12.6738 20.2761 12.6738 20.2045 12.6738 20.1329C12.6738 19.6863 12.6699 19.2396 12.6765 18.7932C12.6782 18.6809 12.6456 18.6515 12.5342 18.6339C10.7915 18.3595 9.46985 17.4561 8.62413 15.9084C7.53513 13.9153 7.8587 11.4851 9.40314 9.82453C10.2689 8.8936 11.3391 8.34398 12.5983 8.17965C15.3024 7.8267 17.8437 9.64224 18.409 12.3226C18.8739 14.5272 17.8961 16.771 15.9655 17.9324C15.3367 18.3106 14.6584 18.5455 13.9319 18.6414C13.8759 18.6488 13.8399 18.6596 13.8401 18.728C13.8418 19.2659 13.841 19.8039 13.841 20.3601C13.8877 20.3601 13.9276 20.36 13.9675 20.3601C14.2 20.3613 14.4329 20.3541 14.6649 20.3658C14.9682 20.381 15.1906 20.6089 15.2134 20.9089C15.2352 21.1959 15.0408 21.4549 14.7507 21.5164C14.6809 21.5311 14.6068 21.5275 14.5347 21.5279C14.307 21.5292 14.0793 21.5283 13.8408 21.5283Z" fill="#B1BFCD"/>
</svg>
