<svg width="27" height="27" viewBox="0 0 27 27" fill="none" xmlns="http://www.w3.org/2000/svg">
<ellipse cx="13.3612" cy="13.6715" rx="13.2247" ry="13.2417" fill="#F5F8F9"/>
<g clip-path="url(#clip0_505_43)">
<mask id="mask0_505_43" style="mask-type:luminance" maskUnits="userSpaceOnUse" x="7" y="5" width="14" height="14">
<path fill-rule="evenodd" clip-rule="evenodd" d="M7.84064 5.96887H20.5083V18.6461H7.84064" fill="white"/>
</mask>
<g mask="url(#mask0_505_43)">
<path fill-rule="evenodd" clip-rule="evenodd" d="M13.3129 17.4282C15.6546 17.4282 17.5601 15.5307 17.5797 13.2157C17.5993 10.8784 15.7219 8.90184 13.3191 8.8976C10.9703 8.89346 9.05702 10.8047 9.05649 13.1621C9.05592 15.5248 10.955 17.4282 13.3129 17.4282ZM16.7204 8.87156C17.2836 8.30775 17.8398 7.75094 18.4062 7.18395C18.2596 7.18395 18.1157 7.1859 17.9718 7.18338C17.8453 7.18119 17.7174 7.18461 17.5926 7.16705C17.278 7.12267 17.0677 6.8382 17.0938 6.5063C17.1168 6.21412 17.376 5.97168 17.677 5.97073C18.4258 5.96835 19.1746 5.96821 19.9234 5.97082C20.2204 5.97182 20.4726 6.20202 20.4967 6.49992C20.5119 6.68913 20.5078 6.88019 20.5076 7.0704C20.5066 7.65344 20.5122 8.23667 20.4972 8.81938C20.4887 9.15332 20.21 9.39561 19.8858 9.38713C19.5551 9.37847 19.3008 9.11818 19.2958 8.77981C19.2925 8.55376 19.2939 8.3276 19.2928 8.10155C19.2928 8.09403 19.2883 8.0866 19.2938 8.1036C18.7448 8.65331 18.1875 9.21145 17.6238 9.77607C18.5976 11.0444 18.9799 12.5081 18.7039 14.1247C18.47 15.4941 17.7837 16.6105 16.6989 17.4734C14.554 19.1795 11.4162 19.004 9.48444 17.0777C7.4914 15.0903 7.28523 11.9706 9.00547 9.7883C9.6142 9.0161 10.3727 8.43844 11.2862 8.0727C12.1995 7.707 13.147 7.60135 14.1187 7.74318C15.0902 7.88502 15.9613 8.26895 16.7204 8.87156Z" fill="#B1BFCD"/>
</g>
</g>
<defs>
<clipPath id="clip0_505_43">
<rect width="12.6957" height="12.7121" fill="white" transform="translate(7.84064 5.93408)"/>
</clipPath>
</defs>
</svg>
